<svg xmlns="http://www.w3.org/2000/svg" xml:space="preserve" width="461.57" height="461.57"
     viewBox="0 0 12198.06 12198.06"
     style="shape-rendering: geometricprecision; text-rendering: geometricprecision; fill-rule: evenodd; clip-rule: evenodd;"><defs><style>.fil1{fill:#000}.fil9{fill:#278a03}.fil7{fill:#f6ba9f}.fil3{fill:#f70}.fil4{fill:#ffd485}.fil13,.fil2,.fil6{fill:#000;fill-rule:nonzero}.fil13,.fil2{fill:#2b2a29}.fil13{fill:#ffd485}</style></defs>
    <g id="\u0421\u043B\u043E\u0439_x0020_1"><path d="M0 0h12198.06v12198.06H0z" style="fill: none;"></path>
        <g id="_1187200224"><path class="fil1" d="M6426.62 1922.23c-706.65 556.23-795.3 797.69-187.15 1129.6 608.17 331.91 816.16 245.92 914.67-642.21 98.51-888.11-20.87-1043.61-727.52-487.39z"></path>
            <path id="_1" class="fil2"
                  d="m6234.38 3061.17-55.23-31-51.17-30.56-47.15-30.23-43.15-29.97-39.18-29.8-35.23-29.7-31.27-29.73-27.34-29.83-23.39-30.01-19.44-30.3-15.45-30.69-11.45-31.12-7.41-31.58-3.36-32.09.7-32.52 4.7-33.03 8.67-33.56 12.56-34.12 16.42-34.8 20.24-35.54 24-36.39 27.77-37.33 31.48-38.35 35.23-39.45 38.89-40.64 42.62-41.94 46.29-43.29 49.98-44.77 53.63-46.27 57.27-47.88 60.9-49.55 64.54-51.31 13.25 16.76-64.34 51.17-60.7 49.38-57.03 47.66-53.34 46.03-49.67 44.48-45.93 42.96-42.21 41.53-38.45 40.15-34.67 38.87-30.9 37.6-27.09 36.44-23.3 35.3-19.49 34.24-15.67 33.22-11.88 32.28-8.09 31.39-4.37 30.59-.63 29.92 3.07 29.39 6.81 29 10.58 28.74 14.41 28.62 18.3 28.57 22.26 28.57 26.27 28.64 30.27 28.76 34.34 28.95 38.4 29.17 42.47 29.51 46.53 29.83 50.63 30.23 54.74 30.73-10.19 18.69-.05.02zm930.37-650.35-9.59 81.09-10.29 76.47-11.04 71.96-11.86 67.49-12.73 63.12-13.64 58.79-14.63 54.57-15.69 50.42-16.78 46.36-17.97 42.35-19.22 38.42-20.55 34.6-21.97 30.78-23.44 27.05-24.99 23.3-26.59 19.61-28.21 15.93-29.85 12.29-31.41 8.69-33.03 5.16-34.65 1.74-36.27-1.57-37.96-4.78-39.69-7.89-41.51-10.92-43.39-13.88-45.35-16.73-47.35-19.54-49.42-22.26-51.55-24.87-53.75-27.46-56.01-29.97 10.19-18.69 55.7 29.8 53.36 27.26 51.07 24.68 48.84 21.97 46.65 19.25 44.53 16.42 42.4 13.54 40.35 10.63 38.32 7.6 36.32 4.58 34.41 1.47 32.5-1.64 30.71-4.8 29-8.02 27.41-11.28 25.93-14.65 24.56-18.11 23.27-21.7 22.04-25.43 20.87-29.24 19.73-33.15 18.57-37.16 17.51-41.22 16.42-45.35 15.4-49.57 14.44-53.82 13.49-58.14 12.61-62.57 11.76-66.98 10.97-71.55 10.24-76.11 9.54-80.77 21.23 2.44h.05zm-744.76-496.97 64.66-50.15 61.33-46 58.02-41.82 54.84-37.67 51.72-33.51 48.65-29.34 45.74-25.16 42.84-21.01 40.08-16.83 37.43-12.63 34.87-8.38 32.45-4.11 30.11.31 27.82 4.82 25.4 9.44 22.84 14.05 20.14 18.52 17.46 22.79 14.87 26.92 12.46 31 10.19 35.06 8.04 39.16 6.03 43.27 4.11 47.39 2.25 51.6.51 55.75-1.18 59.98-2.83 64.21-4.37 68.45-5.84 72.71-7.24 76.95-8.6 81.23-21.23-2.44 8.57-80.99 7.22-76.69 5.82-72.39 4.34-68.07 2.78-63.75 1.18-59.42-.51-55.11-2.22-50.78-4.04-46.41-5.86-42.04-7.75-37.67-9.66-33.25-11.57-28.81-13.45-24.39-15.33-20.04-17.24-15.84-19.25-11.86-21.53-7.99-24.12-4.18-26.92-.27-29.85 3.77-32.81 7.89-35.81 12.1-38.82 16.3-41.82 20.5-44.91 24.75-48.02 28.95-51.19 33.18-54.4 37.38-57.68 41.58-61.02 45.78-64.42 49.96-13.25-16.76-.02-.04z"></path>
            <path class="fil3"
                  d="M8783.91 5530.89c-201.74 400.92-483.98 725.13-543.65 1102.7-48.8 308.73-613.45-226.83-754.37-395.05-392.08-446.41 148.57-1092.99 707.23-1393.9 852.74-469.01 898.74 86.03 590.78 686.26v-.01z"></path>
            <path class="fil3"
                  d="M4366.52 7620.7h-.12c-21.58-606.57-154.49-1219.57-13.37-1900.22 97.43-470.03 102.16-963.64 34.24-1514.68a1682.99 1682.99 0 0 1-7.02-55.23 7680.7 7680.7 0 0 0-26.56-185.12l16.44-.02c-2.25-1073.66 995.13-2122.41 3127.76-913.71 1271.49 650.15 894.81 1204.71-139.59 1860.65 283.48 292.7 522.79 699.82 691.95 1161.95 454.5 1201.27 400.34 2639.74-310.81 3751.59-524.77 834.22-1246.53 1198.92-1268.17-117.52-4.06-246.84-205.85-213.28-216.28-1.57-68.21 1382.15-771.3 1019.83-1275.42 173.95-399.49-658.7-615.99-1461.48-613.04-2260.07l-.01.01z"></path>
            <path class="fil4"
                  d="M7674.72 6456.02c669.76 1822.9.53 2592.29-890.07 2558.75-1358.72-24.6-1459.22-1303.55-997.83-2473.54 688.96-1798.3 1458.69-1288.75 1887.91-85.21z"></path>
            <circle transform="matrix(3.0708 0 -.05085 3.0708 6903.67 8478.8)" r="19.82"
                    style="fill: rgb(255, 102, 0);"></circle>
            <path class="fil3"
                  d="M3606.62 6251.36c297.16-336.36 652.64-578.01 806.48-927.96 125.77-286.16 535.48 375.52 628.96 574.07 265.51 531.53-421.93 1019.15-1038.79 1167.95-944.04 236.46-847.23-311.99-396.63-814.03l-.02-.03z"></path>
            <path class="fil6"
                  d="M5613.78 3879.79c-15.55-105.79 2.47-205.94 41.41-279.2 19.32-36.66 43.83-66.37 69.88-86.9 26.27-20.67 52.74-32.04 80.65-36.17 27.92-3.99 56.52-.63 87.63 11.69 46.39 18.28 94.77 57.8 132.8 113.39 38.28 55.47 66.74 126.4 78.28 205.77 2.78 18.98 26.37 31.19 52.76 27.36 26.39-3.84 45.52-22.28 42.76-41.26-16.97-115.59-65.92-215.63-134.9-286.16-34.63-35.23-74.41-63.22-119.57-81.3-44.91-18.11-96.71-25.91-149.73-18.13-53.03 7.65-100.4 29.92-138.33 60.05-57.08 45.4-96.73 108.39-120.63 181.43-23.71 73.11-31.12 156.64-18.52 243.32 2.78 18.98 26.34 31.22 52.76 27.36 26.39-3.84 45.52-22.28 42.76-41.26l-.01.02z"></path>
            <circle class="fil4" transform="matrix(.12128 -.05521 .05521 .12128 5671.5 3264.77)" r="577.26"></circle>
            <path class="fil6"
                  d="M6622.7 3649.75c-15.55-105.79 2.47-205.94 41.41-279.2 19.32-36.66 43.83-66.37 69.88-86.9 26.27-20.67 52.76-32.04 80.65-36.17 27.94-4.01 56.52-.63 87.63 11.69 46.41 18.28 94.77 57.83 132.8 113.42 38.28 55.47 66.74 126.4 78.28 205.77 2.76 18.98 26.37 31.19 52.76 27.36 26.37-3.84 45.52-22.28 42.76-41.26-16.97-115.59-65.92-215.63-134.9-286.16-34.63-35.23-74.41-63.22-119.57-81.3-44.91-18.11-96.71-25.91-149.73-18.13-53.05 7.65-100.4 29.92-138.33 60.05-57.08 45.4-96.73 108.39-120.63 181.43-23.71 73.09-31.12 156.64-18.5 243.32 2.76 18.98 26.34 31.22 52.76 27.36 26.37-3.84 45.52-22.28 42.76-41.26l-.03-.01z"></path>
            <circle class="fil4" transform="matrix(.12128 -.05521 .05521 .12128 6732.28 3024.8)" r="577.26"></circle>
            <path class="fil1"
                  d="M8125.14 3851.17c11.76-217.68-28.4-263.33-235.11-162.72-206.69 100.61-229.02 156.37-34.07 273.43 194.93 117.06 257.42 106.97 269.18-110.71zM4173.36 2559.84c944.09 93.81 1157.46 262.27 793.31 921.29-364.14 659.04-599.04 702.36-1178.97-50.49-579.94-752.85-558.43-964.63 385.66-870.82v.02z"></path>
            <path id="_1_0" class="fil2"
                  d="m4976.06 3486.35-18.76-10.38 32.31-60.12 28.91-57.3 25.45-54.53 21.97-51.82 18.45-49.16 14.92-46.61 11.4-44.07 7.82-41.63 4.25-39.21.7-36.9-2.83-34.65-6.4-32.55-9.95-30.54-13.52-28.71-17.17-26.97-20.89-25.4-24.7-23.93-28.54-22.5-32.5-21.16-36.49-19.85-40.51-18.57-44.55-17.36-48.63-16.25-52.74-15.14-56.84-14.15-60.97-13.18-65.12-12.32-69.3-11.5-73.52-10.77-77.75-10.12-81.97-9.54-86.25-9.01 2.08-21.3 86.49 9.03 82.26 9.54 78.04 10.17 73.88 10.82 69.74 11.57 65.65 12.42 61.57 13.3 57.54 14.29 53.53 15.38 49.55 16.54 45.64 17.8 41.72 19.15 37.89 20.6 34.02 22.14 30.2 23.78 26.34 25.55 22.48 27.36 18.59 29.24 14.7 31.14 10.77 33.05 6.88 34.99 3.05 36.95-.75 38.92-4.46 41-8.09 43.13-11.71 45.37-15.26 47.66-18.81 50.08-22.26 52.57-25.74 55.18-29.17 57.83-32.57 60.58-.06.06zm-1196.84-49.16 16.97-13.01 53.27 68.12 51.31 63.48 49.45 58.84 47.66 54.26 45.95 49.69 44.33 45.18 42.76 40.68 41.31 36.22 39.89 31.8 38.54 27.38 37.31 23.01 36.1 18.72 34.96 14.46 33.92 10.29 32.98 6.18 32.16 2.15 31.48-1.81 30.98-5.74 30.61-9.68 30.37-13.61 30.25-17.58 30.2-21.53 30.25-25.5 30.35-29.46 30.49-33.34 30.73-37.26 31.02-41.09 31.41-44.91 31.85-48.7 32.38-52.45 33.01-56.16 33.68-59.81 18.76 10.38-33.85 60.12-33.2 56.52-32.67 52.88-32.18 49.21-31.82 45.52-31.53 41.77-31.36 38.03-31.29 34.24-31.34 30.4-31.48 26.54-31.75 22.62-32.09 18.64-32.52 14.58-33.05 10.46-33.61 6.25-34.19 1.96-34.77-2.32-35.4-6.64-36.05-10.94-36.8-15.21-37.62-19.51-38.58-23.81-39.6-28.13-40.76-32.45-42.01-36.85-43.34-41.22-44.82-45.66-46.36-50.15-48-54.65-49.71-59.18-51.55-63.77-53.46-68.38.05-.07zm395.18-887.96-2.08 21.3-85.65-7.87-80.29-6.03-74.95-4.18-69.69-2.25-64.47-.29-59.25 1.69-54.16 3.72-49.04 5.79-44 7.85-38.94 9.95-34 12.03-29.05 14.05-24.22 16.08-19.56 18.06-15.11 20.12-10.89 22.31-6.81 24.8-2.76 27.48 1.38 30.3 5.53 33.18 9.71 36.08 13.86 38.94 17.99 41.84 22.07 44.72 26.08 47.66 30.03 50.61 33.95 53.56 37.77 56.55 41.55 59.59 45.3 62.66 48.92 65.77 52.52 68.91-16.97 13.01-52.69-69.08-49.09-65.99-45.47-62.93-41.8-59.91-38.03-56.96-34.24-54.04-30.4-51.19-26.46-48.39-22.52-45.64-18.47-42.98-14.39-40.39-10.19-37.89-5.89-35.47-1.5-33.1 3.09-30.81 7.82-28.47 12.68-25.96 17.51-23.3 22.23-20.53 26.85-17.84 31.41-15.21 36-12.75 40.66-10.38 45.4-8.11 50.2-5.91 55.08-3.8 60.05-1.72 65.12.29 70.22 2.27 75.41 4.18 80.65 6.08 85.98 7.89.01.03z"></path>
            <path class="fil7"
                  d="M4106.43 3482.02c29.51-45.23 59.47-70.51 59.95 15.16.24 44.67-.41 50.34 6.01 48.07 37.14-13.3 26.3-54.36 88.62-89.71 34.14-19.34-25.28 146.62-12.56 157.7 140.22 122.3 356.63 275.15 511.29 3.12 106.71-187.66 53.27-185.34-30.69-231.15-170.61-93.06-563.66-267.4-881.64-238.34-40.83 3.75 24.63 129.45 152.12 268.7 15.09 16.49 15.21 21.9 53.8-15.69 40.06-39.04 30.61 1.72 18.57 34.36-2.2 5.94-21.92 134.22 34.48 47.76l.05.02z"></path>
            <path class="fil3"
                  d="M4374.1 4018.43c-89.68-155.21-20.41-71.04 89.96-172.67 71.16-65.53-215.43-118.12 12.05-206.06 141.14-54.55 49.69-58.58 23.13-175.66-23.25-102.48 2.15-87.41 75.6-76.93 79.61 11.35 162.84 24.77 53.95-81.73-34.75-33.97-149.25-185.68 90.54-132.99 178.9 39.31 96.44 16.23 65.7-103.88-27.34-106.92 234.17 37.45 167.76-192.99 4.06-5.11-110.66-197.42 218.07-93.47 74.56 23.59 551.72-143.4 508.33-12.44-113.2 341.74-813.91 1597.91-1083.27 1831.16-122.3-315.49-164.7-483.5-221.83-582.35v.02z"></path>
            <path class="fil7"
                  d="M5116.41 4553.12c325.03 476.11 863.94-106.9 530-317.88-284.61-179.84-723.08 35.16-530 317.88z"></path>
            <path d="M11030.63 1838.79 9780.47 1689.9c-312.59-22.31-781.39 14.94-1004.67 305.13-245.49 334.88-66.91 1227.85 200.92 1473.46 79.37 72.76 200.1 115.92 339.66 140.97 5.96 126.14-19.46 287.6-166.44 368.66 0 0 480.65-16.03 663.1-337.98 198.94-2.47 389.66-15.38 525.49-15.38 446.58 0 1026.98-44.65 1205.51-558.11 178.61-468.82-22.31-1093.91-513.42-1227.85l.01-.02z"
                  style="fill: rgb(199, 233, 248); fill-rule: nonzero;"></path>
            <path class="fil6"
                  d="M8911.28 2999.62c-31.31 0-63.44.41-96.32 1.18h-5.86c-25.06-1.57-45.03-9.78-59.91-24.68-14.87-14.87-21.92-33.66-21.16-56.38.8-6.25 2.15-13.71 4.13-22.31a176.79 176.79 0 0 1 6.44-22.31 319.71 319.71 0 0 0 37.6 7.05c7.05.77 16.06 1.57 27.02 2.34a487.44 487.44 0 0 0 14.1-28.21c7.82-18.79 17.41-41.7 28.79-68.72a8916.55 8916.55 0 0 0 38.75-93.98c14.48-35.64 44.84-110.61 91.05-224.95 16.44-40.73 29.97-74.97 40.51-102.79a908.9 908.9 0 0 0 27.02-82.24 1433.04 1433.04 0 0 0 21.13-88.69c6.66-32.11 14.68-73.23 24.07-123.34 32.89 6.25 62.83 20.36 89.88 42.28 27.02 21.92 50.29 48.17 69.88 78.69-7.05 9.42-15.64 23.1-25.84 41.12-10.19 18.01-21.35 39.55-33.49 64.61a3215.77 3215.77 0 0 0-39.33 84.56 5095.79 5095.79 0 0 1-45.81 98.68c-67.34 150.35-111.19 258.82-131.58 325.39a1839.25 1839.25 0 0 0-23.49 81.06c35.23 0 117.85-.8 247.86-2.34.8-3.94 1.16-7.46 1.16-10.58 0-32.89 5.48-75.19 16.47-126.86 10.97-51.7 37.58-144.88 79.88-279.56a3063.52 3063.52 0 0 1 44.04-119.23 1978.66 1978.66 0 0 1 45.23-106.32c14.87-32.11 29.17-60.29 42.86-84.56 13.71-24.27 26.05-42.28 37.02-54.04 7.82.8 18.21 3.72 31.12 8.81a387.91 387.91 0 0 1 39.33 18.21 277.05 277.05 0 0 1 36.41 22.89c10.97 8.23 18.4 15.86 22.31 22.91-14.1 13.32-28.18 30.54-42.28 51.7-14.1 21.16-28.01 45.42-41.7 72.82a1396.1 1396.1 0 0 0-40.54 89.27c-13.3 32.11-31.12 82.24-53.46 150.35-22.31 68.14-38.94 122.93-49.91 164.46a1671.38 1671.38 0 0 0-27.02 118.65 1154.54 1154.54 0 0 0-11.74 59.91c90.06-.8 160.93-1.57 212.6-2.34v-7.05c0-32.89 5.48-75.19 16.44-126.86 10.97-51.7 37.6-144.88 79.88-279.56a3015.26 3015.26 0 0 1 44.04-119.23 1978.66 1978.66 0 0 1 45.23-106.32c14.87-32.11 29.17-60.29 42.86-84.56 13.71-24.27 26.03-42.28 36.99-54.04 7.85.8 18.23 3.72 31.12 8.81a390.2 390.2 0 0 1 39.35 18.21 277.05 277.05 0 0 1 36.41 22.89c10.97 8.23 18.4 15.86 22.31 22.91-14.1 13.32-28.18 30.54-42.28 51.7-14.1 21.16-28.01 45.42-41.7 72.82a1390.93 1390.93 0 0 0-40.51 89.27c-13.3 32.11-31.12 82.24-53.44 150.35-22.33 68.14-38.97 122.93-49.93 164.46a1671.38 1671.38 0 0 0-27.02 118.65c-3.92 18.81-7.44 36.8-10.58 54.04h17.63c14.87.77 28.01 10.97 39.35 30.54 11.35 19.59 19.78 46.61 25.26 81.06-6.25-.8-38.37-1.18-96.32-1.18v17.63c0 7.82.19 14.1.58 18.81.39 4.7.97 8.62 1.76 11.74-17.24-.77-29.75-3.72-37.6-8.81-7.82-5.09-13.71-10.58-17.63-16.44a167.14 167.14 0 0 1-10.58-18.21 7.83 7.83 0 0 0-3.53-3.53c-68.91 0-160.13.77-273.69 2.34v14.1c0 7.82.19 14.1.58 18.81.39 4.7.97 8.62 1.76 11.74-17.24-.77-29.78-3.72-37.6-8.81s-13.71-10.58-17.63-16.44a167.14 167.14 0 0 1-10.58-18.21h-1.18a88127 88127 0 0 1-324.21 4.7c-.77 1.57-1.18 2.76-1.18 3.53-3.92-.77-7.82-1.57-11.74-2.34l.14-.05zM9893.88 2922.11c3.12-48.55 11.74-90.25 25.84-125.1 14.1-34.84 34.26-65.38 60.51-91.63 26.25-26.22 58.14-49.91 95.74-71.06 37.6-21.13 81.44-41.51 131.58-61.09 0-4.68.19-9.61.58-14.7.39-5.09.58-10.36.58-15.84 0-10.19-.77-20.77-2.34-31.72a123.86 123.86 0 0 0-8.23-30.54c-3.92-9.39-9.39-17.05-16.44-22.91-7.05-5.86-16.06-8.81-27.02-8.81-21.13 0-41.89 4.68-62.25 14.1a325.95 325.95 0 0 0-58.14 34.65 470.84 470.84 0 0 0-51.7 44.65 2076.07 2076.07 0 0 0-42.86 44.04 243.52 243.52 0 0 1-19.97-19.97c35.25-46.99 73.81-85.94 115.7-116.86 41.89-30.93 81.63-50.71 119.23-59.33 54.04 6.28 96.13 26.05 126.28 59.33 30.15 33.27 45.23 73.4 45.23 120.39 0 32.11-4.49 64.8-13.49 98.09a481.42 481.42 0 0 1-37.6 96.32 556.93 556.93 0 0 1-56.38 87.53c-21.53 27.41-44.62 51.29-69.3 71.64-24.68 20.36-50.13 36.41-76.35 48.17-26.25 11.74-52.28 17.63-78.11 17.63-36.03-4.68-69.71-27.02-101-66.96l-.09.01zm81.04-38.75c21.16-3.14 43.08-11.74 65.77-25.84 22.72-14.1 44.07-32.89 64.04-56.38 19.97-23.49 38.18-50.9 54.62-82.24 16.44-31.31 29.37-65 38.75-101-62.66 31.31-114.72 69.88-156.23 115.7-41.51 45.81-63.82 95.74-66.96 149.76l.01.01zM10571.04 2373.54c20.96 6.28 40.71 20.19 59.25 41.7 18.55 21.53 32.23 45.23 41.09 71.09-8.86 21.13-22.55 46.58-41.09 76.35a6165.09 6165.09 0 0 0-55.64 91.03 2119 2119 0 0 0-50.17 88.11c-14.92 27.79-23.59 50.71-26.01 68.72a1550.89 1550.89 0 0 0 42.93-46.41 2673.4 2673.4 0 0 0 45.93-52.86 2673.1 2673.1 0 0 1 41.7-48.17c12.89-14.48 22.96-25.26 30.23-32.31a4655.46 4655.46 0 0 1 54.43-54.62 834.6 834.6 0 0 1 65.89-58.72c22.96-18.4 46.15-34.07 69.54-46.99 23.37-12.91 44.72-19.39 64.09-19.39 20.96 0 38.49 6.86 52.59 20.55 14.12 13.71 25.18 28.01 33.25 42.88 0 1.57-3.02 3.72-9.08 6.47-6.06 2.73-14.7 10.38-26.01 22.91-11.28 14.1-23.97 33.49-38.08 58.14a1068.01 1068.01 0 0 0-41.12 79.88 639.87 639.87 0 0 0-33.25 87.53c-8.86 29.75-13.3 56.76-13.3 81.04 0 19.59 2.63 32.11 7.87 37.6 5.24 5.48 12.71 8.21 22.36 8.21 8.86 0 18.13-1.96 27.82-5.86 9.66-3.94 17.34-5.86 22.96-5.86 3.24 1.57 5.84 4.9 7.87 9.97 2.03 5.09 3.02 9.61 3.02 13.52a188.9 188.9 0 0 1-22.96 16.44 305.12 305.12 0 0 1-27.82 15.26 245.55 245.55 0 0 1-28.42 11.76c-9.27 3.12-17.53 4.68-24.8 4.68-23.37 0-42.52-3.31-57.44-9.97-14.92-6.66-26.61-15.48-35.06-26.44-8.45-10.97-14.29-24.07-17.53-39.33-3.24-15.26-4.82-31.51-4.82-48.75 0-9.39.82-19.97 2.44-31.72 1.62-11.74 4.82-25.64 9.66-41.7 4.82-16.06 11.69-35.23 20.55-57.56 8.86-22.33 20.17-49.13 33.85-80.46-1.62 0-12.49 5.48-32.64 16.44-20.17 10.97-41.92 27.79-65.31 50.51-37.89 35.23-71.93 70.1-102.16 104.55-30.23 34.46-61.07 72.82-92.5 115.11-17.75 24.27-33.25 44.84-46.56 61.67-13.3 16.83-24.8 28.01-34.46 33.47-16.93-9.39-29.44-22.5-37.5-39.33a243.88 243.88 0 0 1-18.11-52.28c0-14.87 2.2-33.66 6.64-56.38 4.44-22.72 10.48-47.95 18.13-75.77a1093.29 1093.29 0 0 1 28.42-87.53 1458.89 1458.89 0 0 1 37.48-91.63c30.64-68.91 58.65-122.96 84.03-162.09 25.4-39.16 41.31-60.29 47.76-63.44h.07zM11125.89 2722.39c0-21.16 5.67-51.89 17.05-92.21 11.35-40.32 26.03-84.97 44.04-133.91a2784.41 2784.41 0 0 1 61.09-151.51c22.72-52.08 45.62-100.83 68.72-146.23 23.1-45.42 45.23-84.78 66.37-118.07 21.16-33.27 39.55-55.4 55.23-66.35 12.54 2.37 26.03 8.04 40.51 17.02a281.63 281.63 0 0 1 40.51 30.54 253.94 253.94 0 0 1 32.89 35.83c9.39 12.54 14.87 23.49 16.44 32.89-39.93 32.89-79.49 73.81-118.65 122.76-39.16 48.94-75.36 103.18-108.65 162.7-33.27 59.52-62.44 123.15-87.51 190.88a1204.02 1204.02 0 0 0-56.38 207.34 224.21 224.21 0 0 1-27.6-8.81c-9.01-3.53-16.64-8.4-22.91-14.68-6.25-6.25-11.35-14.87-15.26-25.84-3.92-10.97-5.86-25.06-5.86-42.28l-.02-.05zm-25.84 311.3c-9.39 0-18.4-2.15-27.02-6.47a105.58 105.58 0 0 1-22.91-15.26c-6.66-5.86-11.96-12.15-15.84-18.79-3.94-6.66-5.86-11.96-5.86-15.86 0-9.39 1.16-21.53 3.53-36.41a253.8 253.8 0 0 1 10.58-42.86c4.68-13.71 10.58-25.45 17.63-35.23 7.05-9.8 14.87-14.68 23.49-14.68 21.92 0 44.07 7.63 66.37 22.91 22.31 15.26 38.97 32.31 49.91 51.09a173.47 173.47 0 0 0-24.68 34.65 745.9 745.9 0 0 1-21.13 36.41c-7.05 11.35-14.87 20.94-23.49 28.79-8.62 7.82-18.79 11.74-30.54 11.74l-.03-.02z"></path>
            <path class="fil9"
                  d="M4832.33 1722.12c178.1-42.38 334.23-80.94 479.64-64.85 623.57 69.06 955.84 597.22 1076.6 910.67 112.47 291.95-1512.77 901.49-1605.18 630.18-209.21-614.03 144.56-968.18 48.94-1476h-.01z"></path>
            <path d="M6255.44 2548.4c7.22 20.82-1.52 42.42-18.47 55.87-22.36 17.72-52.52 14.34-78.23 7.46-34.87-9.32-71.5-26.83-102.77 1.6-28.86 26.25-19.3 69.06-31.97 102.6-16.88 44.55-57.46 53.99-97.19 33.83-20.14-10.24-38.28-25.5-59.91-32.57-31.87-10.41-87.51 16.03-93.88 51.19-4.68 25.88 3.24 50.13-7.19 75.62-9.06 22.16-25.57 40.9-45.76 53.61-46.24 29.1-91.8 13.88-136.62-9.49-29.54-15.43-60.87-30.73-94.05-16.06-36.05 15.96-43.42 48.84-48.14 84.24-2.95 22.02-6.59 45.2-22.09 62.3-18.04 19.9-44.67 24.39-70.29 20.84-37.58-5.16-74.15-30.64-112.86-25.38-42.57 5.79-39.4 58.65-64.66 84.73-49.74 51.33-125.27 25.79-168.32-19.42-11.21-11.76 7.41-28.74 18.59-17 23.54 24.7 55.87 44.53 91.34 38.97 42.98-6.73 49.69-39.11 65.65-72.25 27-55.99 88.38-40.73 135.89-24.51 31.12 10.63 76.08 22.74 93.76-15.02 10.19-21.75 7.92-48.02 13.47-71.09 11.18-46.39 54.57-80.85 102.98-77.7 54.31 3.51 97.29 58.41 153.11 47.27 24.85-4.95 47.44-21.8 59.93-43.73 14.39-25.33 6.78-50.2 10.12-77.36 5.48-44.84 65.43-82.19 108.41-77.87 18.3 1.84 35.18 10.8 50.8 19.95 17.58 10.31 38.6 27.92 60.1 27.05 40.2-1.64 38.25-58.6 43.51-86.59 5.09-27.19 18.45-50.9 42.59-65.31 26.15-15.6 54.33-13.78 82.62-5.84 16.88 4.73 33.39 11.98 51.02 13.54 22.79 1.98 53.7-9.83 43.8-38.37-5.28-15.26 19.44-20.24 24.68-5.09l.02-.03z"
                  style="fill: rgb(255, 229, 0); fill-rule: nonzero; stroke: rgb(255, 237, 0); stroke-width: 51.02; stroke-miterlimit: 22.9256;"></path>
            <path d="M4358.46 3986.8c96.3 68.84 220.45 241.97 209.11 382.9-1.6 19.97-40.3-57.34-39.18-35.59 1.26 24.89 39.18 35.62 35.69 118.99-2.68 63.89-27.58 128.36-64.97 189.93-25.45 41.87-40.73 71.81-53.53 62.11-43.61-33.13-12.39-66.33-42.06-86.01-17.34-11.45-30.32 64.25-44.5 50.95-186.6-174.56-132.8-525.88-.53-683.28h-.02z"
                  style="fill: rgb(255, 229, 0);"></path>
            <path d="M4220.87 2084.37c-414.81 569.03-267.83 1405.3 144.49 1863.15 1094.08-393.85 972.14-1613.03 923.37-2292.35-109.02-11.45-193.62-8.43-269.33-3.48-346.45 22.6-582.47 136.35-798.51 432.69l-.03-.02z"
                  style="fill: rgb(106, 207, 48);"></path>
            <path class="fil9"
                  d="M4276.7 4021.23c131.29 137.13 278.14-141.64 157.63-179.94-102.74-32.64-235.59 98.51-157.63 179.94z"></path>
            <path class="fil3"
                  d="M4592.92 9155.54c-948.26 628.74-1889.88 559.25-2458.26 334.11-443.22-175.56-392.35-215.26-101.22-580.4 608.43-763.21 1553.17-1010.68 2319.27-991.48 1354.93 22.02 1027.15 724.84 240.23 1237.77h-.02z"></path>
            <path class="fil4"
                  d="M3039.43 9650.61c-350.67 3.02-661.82-64.71-904.77-160.96-443.25-175.56-392.35-215.26-101.24-580.4 128.8-161.56 272.68-299.92 426.73-417.6-43 53.44-48.97 92.72 83.76 76.2 152.92-19.03 43.13 49.28 17.99 207.3-17.46 109.74 239.72-38.3 60.22 154.95-121.72 131.02 187.3 80.12 240.95 104.36-6.49 60.99-150.11 96.9-140.44 152.17 12.73 72.52 238.88 34.07 249.09 94.99 11.96 71.4-238.97 195.92-77.46 234.78 130 31.27 233.4-28.11 145.14 134.25l.03-.03z"></path>
            <path class="fil13"
                  d="M3735.9 8243.35c-70.48 10.99-135.05 33.27-197.61 67.49-53.82 29.44 1.04 107.76 54.62 78.48 46.51-25.45 97.34-42.42 149.71-50.61 60.41-9.44 54.09-104.84-6.71-95.35v-.01zM3096.05 8559.07c38.01-25.45 79.66-42.84 124.95-50.1 60.34-9.68 54.04-105.11-6.69-95.35-62.69 10.05-120.01 31.58-172.86 66.98-51.07 34.21 3.41 112.76 54.62 78.45l-.02.02zM4096.82 8489.29c59.52-15.45 27.41-105.5-31.8-90.13a1280.1 1280.1 0 0 0-166.54 55.66c-56.64 23.35-25.21 113.61 31.8 90.11a1281.1 1281.1 0 0 1 166.54-55.66v.02zM3687.63 8534.94c-79.1 11.38-154.63 32.74-227.11 66.52-55.25 25.74-24 116.14 31.8 90.11 64.61-30.13 131.38-51.14 202-61.28 60.63-8.72 54.24-104.12-6.69-95.35v-.01zM3044.96 8870.76c36.27-27.21 74.97-45.08 119.01-55.89 25.11-6.15 37.16-38.32 29.17-60.97-9.3-26.34-35.79-35.35-60.97-29.17-51.43 12.63-99.45 35.79-141.83 67.56-49.04 36.78 5.21 115.52 54.62 78.45l.01.02zM4029.63 8825.61c59.59-15.21 27.43-105.28-31.77-90.11a1230.78 1230.78 0 0 0-166.61 55.44c-56.62 23.44-25.18 113.73 31.8 90.13a1229.06 1229.06 0 0 1 166.61-55.47l-.03.01zM3371 9052.18c62.83-39.21 128.92-68.96 199.57-91.03 58.77-18.35 26.88-108.46-31.8-90.13-78.62 24.53-152.53 59.08-222.38 102.69-52.16 32.57 2.47 111.02 54.62 78.45v.03zM4306.57 8903.5c-62.71 8.52-120.05 28.4-174.82 60-53.22 30.71 1.57 109.09 54.62 78.48 39.18-22.62 82.09-37.02 126.91-43.1 60.73-8.26 54.33-103.66-6.69-95.38h-.02zM3861.02 9075.55c-71.45 7.27-140.1 25.47-205.12 56.11-55.08 25.98-23.88 116.38 31.77 90.13 57.51-27.12 116.72-44.43 180.03-50.88 61.16-6.23 54.55-101.58-6.71-95.38l.03.01zM3372.33 9213.88l-165.26 58.29c-58 20.46-26.3 110.61 31.8 90.11l165.26-58.29c57.97-20.46 26.3-110.61-31.8-90.13v.02z"></path></g></g></svg>
