<svg xmlns="http://www.w3.org/2000/svg" xml:space="preserve" width="461.57" height="461.57"
     viewBox="0 0 12198.06 12198.06"
     style="shape-rendering: geometricprecision; text-rendering: geometricprecision; fill-rule: evenodd; clip-rule: evenodd;"><defs><linearGradient id="id0" gradientUnits="userSpaceOnUse" x1="7709.83" y1="7222.57" x2="7945.32" y2="6970.48"><stop offset="0" style="stop-opacity: 1; stop-color: rgb(237, 111, 0);"></stop><stop
        offset="1" style="stop-opacity: 1; stop-color: rgb(255, 119, 0);"></stop></linearGradient><linearGradient
        id="id1" gradientUnits="userSpaceOnUse" x1="5303.61" y1="6759.04" x2="5648.17" y2="7188.7"><stop offset="0" style="stop-opacity: 1; stop-color: rgb(255, 119, 0);"></stop>
    <stop offset="1" style="stop-opacity: 1; stop-color: rgb(237, 111, 0);"></stop></linearGradient><style>.fil1{fill:#000}.fil12{fill:#278a03}.fil6{fill:#f6ba9f}.fil3{fill:#f70}.fil4{fill:#ffd485}.fil9{fill:#000;fill-rule:nonzero}.fil10,.fil11,.fil2{fill:#2b2a29;fill-rule:nonzero}.fil10,.fil11{fill:#fefefe}.fil11{fill:#ffd485}</style></defs>
    <g id="\u0421\u043B\u043E\u0439_x0020_1"><path d="M0 0h12198.06v12198.06H0z" style="fill: none;"></path>
        <g id="_2300633321008"><path class="fil1" d="M6433.97 1922.24c-706.65 556.2-795.3 797.66-187.13 1129.58 608.14 331.92 816.15 245.94 914.63-642.21 98.52-888.11-20.85-1043.6-727.5-487.41v.04z"></path>
            <path id="_1" class="fil2"
                  d="m6241.7 3061.15-55.19-30.99-51.19-30.55-47.15-30.24-43.16-29.97-39.19-29.8-35.23-29.7-31.26-29.74-27.34-29.84-23.41-30.03-19.45-30.31-15.44-30.68-11.45-31.09-7.41-31.57-3.35-32.09.72-32.53 4.68-33.04 8.68-33.56 12.58-34.14 16.44-34.82 20.23-35.54 23.99-36.4 27.75-37.32 31.47-38.35 35.23-39.43 38.92-40.66 42.61-41.93 46.31-43.3 49.96-44.73 53.62-46.27 57.27-47.87 60.9-49.51 64.51-51.29 13.25 16.74-64.34 51.16-60.69 49.38-57.03 47.67-53.35 46.03-49.65 44.46-45.93 42.96-42.2 41.52-38.45 40.15-34.69 38.85-30.89 37.59-27.1 36.43-23.3 35.3-19.48 34.24-15.68 33.21-11.9 32.26-8.1 31.4-4.37 30.58-.65 29.94 3.08 29.39 6.8 29.02 10.6 28.74 14.42 28.61 18.28 28.57 22.28 28.57 26.28 28.64 30.27 28.78 34.34 28.95 38.38 29.19 42.48 29.5 46.51 29.84 50.64 30.24 54.75 30.75-10.19 18.69-.02-.02zm930.39-650.31-9.6 81.1-10.29 76.48-11.04 71.97-11.86 67.49-12.72 63.12-13.63 58.81-14.62 54.58-15.68 50.4-16.78 46.38-17.98 42.34-19.24 38.42-20.58 34.58-21.97 30.79-23.44 27.03-24.98 23.3-26.59 19.62-28.2 15.92-29.84 12.31-31.44 8.68-33.04 5.16-34.65 1.74-36.26-1.57-37.97-4.78-39.71-7.89-41.48-10.9-43.4-13.87-45.35-16.74-47.36-19.52-49.41-22.24-51.57-24.88-53.76-27.48-56-29.97 10.19-18.69 55.7 29.8 53.38 27.27 51.09 24.67 48.83 21.97 46.68 19.24 44.53 16.44 42.41 13.56 40.36 10.63 38.31 7.62 36.33 4.57 34.41 1.47 32.5-1.64 30.68-4.81 29.02-8.03 27.41-11.28 25.94-14.66 24.53-18.11 23.27-21.7 22.07-25.42 20.85-29.26 19.72-33.15 18.59-37.15 17.5-41.24 16.44-45.35 15.41-49.58 14.42-53.83 13.49-58.16 12.61-62.57 11.76-66.98 10.97-71.53 10.25-76.1 9.54-80.79 21.23 2.43.03-.01zm-744.76-496.98 64.65-50.16 61.31-46 58.02-41.83 54.85-37.66 51.7-33.52 48.66-29.36 45.73-25.18 42.85-21.02 40.08-16.81 37.42-12.61 34.86-8.41 32.46-4.11 30.1.31 27.82 4.81 25.39 9.47 22.82 14.04 20.13 18.52 17.46 22.79 14.86 26.93 12.44 30.99 10.19 35.06 8.06 39.12 6.05 43.26 4.11 47.39 2.26 51.6.51 55.77-1.2 59.97-2.81 64.22-4.37 68.45-5.84 72.72-7.24 76.96-8.61 81.23-21.23-2.43 8.58-80.99 7.24-76.68 5.81-72.38 4.34-68.07 2.81-63.77 1.2-59.43-.51-55.13-2.22-50.78-4.04-46.41-5.87-42.03-7.76-37.66-9.64-33.25-11.59-28.81-13.46-24.4-15.34-20.06-17.22-15.85-19.24-11.86-21.52-8-24.12-4.17-26.93-.27-29.84 3.76-32.8 7.89-35.81 12.1-38.82 16.3-41.83 20.51-44.91 24.74-48.01 28.95-51.19 33.18-54.41 37.39-57.68 41.59-61 45.8-64.41 49.96-13.25-16.74-.04.01z"></path>
            <path class="fil3"
                  d="M4454.88 4475.14a1725.9 1725.9 0 0 1-67.46-325.53c-122.92-1130.37 863.1-2375.77 3117.76-1097.87 1271.47 650.17 894.79 1204.73-139.6 1860.64 283.46 292.69 522.78 699.82 691.96 1161.94 454.5 1201.28 400.33 2639.75-310.84 3751.6-524.76 834.23-1246.52 1198.92-1268.19-117.52-4.07-246.83-205.82-213.27-216.28-1.54-68.21 1382.12-771.32 1019.85-1275.4 173.94-399.51-658.71-616-1461.47-613.06-2260.09h-.14c-33.93-953.94 51.94-2083.76 81.17-3145.58l.08.01z"></path>
            <path class="fil4"
                  d="M7682.06 6456.01c669.76 1822.91.55 2592.28-890.06 2558.76-1358.71-24.6-1459.22-1303.52-997.81-2473.53 688.96-1798.31 1458.67-1288.73 1887.92-85.23h-.04z"></path>
            <circle transform="matrix(3.0708 0 -.05085 3.0708 6911.05 8478.87)" r="19.82"
                    style="fill: rgb(255, 102, 0);"></circle>
            <circle class="fil4" transform="matrix(.12128 -.05521 .05521 .12128 5860.51 3250.31)" r="577.28"></circle>
            <circle class="fil4" transform="matrix(.12128 -.05521 .05521 .12128 6725.8 3047.97)" r="577.28"></circle>
            <path class="fil1"
                  d="M8132.48 3851.18c11.76-217.69-28.4-263.33-235.11-162.73s-229.02 156.38-34.07 273.42c194.95 117.04 257.42 106.97 269.18-110.69zM3927.18 2863.15c926.53-204.11 1181.66-110.27 1040.29 629.26-141.4 739.57-351.23 853.7-1136.35 318.25-785.12-535.41-830.47-743.43 96.06-947.54l.01.04z"></path>
            <path id="_1_0" class="fil2"
                  d="m4978 3494.42-21.06-4.04 12.03-67.22 9.67-63.43 7.24-59.73 4.78-56.07 2.26-52.46-.27-48.93-2.87-45.42-5.46-42-8.13-38.58-10.8-35.3-13.49-32.05-16.2-28.95-18.93-25.97-21.76-23.06-24.71-20.34-27.75-17.67-30.89-15.07-34.14-12.51-37.46-10.01-40.83-7.52-44.29-5.05-47.74-2.67-51.26-.31-54.82 1.98-58.43 4.24-62.06 6.42-65.75 8.54-69.44 10.6-73.23 12.61-77.03 14.55-80.89 16.4-84.78 18.22-4.64-20.88 85.02-18.28 81.17-16.47 77.33-14.59 73.6-12.68 69.89-10.66 66.26-8.61 62.68-6.46 59.12-4.28 55.67-2.02 52.25.34 48.93 2.74 45.62 5.22 42.41 7.82 39.23 10.49 36.09 13.22 32.98 16.09 29.87 19 26.76 22 23.65 25.05 20.51 28.09 17.39 31.13 14.35 34.17 11.42 37.25 8.47 40.36 5.67 43.54 2.98 46.75.27 50.06-2.33 53.45-4.85 56.89-7.35 60.42-9.74 64.04-12.14 67.7-.03-.1zm-1152.92 325.09 12.1-17.63 71.8 48.21 68.52 44.39 65.27 40.59 62.16 36.77 59.12 32.98 56.18 29.19 53.31 25.39 50.51 21.59 47.77 17.8 45.18 14.04 42.61 10.29 40.12 6.59 37.73 2.91 35.44-.75 33.28-4.37 31.23-7.93 29.36-11.52 27.65-15.1 26.07-18.69 24.64-22.41 23.3-26.11 22.04-29.87 20.85-33.63 19.69-37.42 18.66-41.18 17.63-44.97 16.74-48.69 15.89-52.46 15.17-56.18 14.49-59.9 13.9-63.63 13.43-67.32 21.06 4.04-13.49 67.7-14.01 64.04-14.62 60.38-15.31 56.76-16.09 53.14-16.98 49.51-18.01 45.9-19.1 42.27-20.34 38.64-21.66 34.99-23.17 31.33-24.71 27.68-26.38 23.95-28.2 20.23-30 16.37-31.88 12.51-33.8 8.58-35.71 4.68-37.7.79-39.71-3.04-41.83-6.87-44.05-10.66-46.38-14.42-48.83-18.22-51.36-21.93-54.03-25.73-56.79-29.5-59.63-33.25-62.61-37.05-65.68-40.8-68.82-44.6-72.07-48.39.06-.01zm99.78-966.82 4.64 20.88-83.86 19.1-78.19 19.21-72.55 19.34-66.94 19.52-61.38 19.75-55.8 20.03-50.3 20.37-44.84 20.75-39.36 21.12-33.93 21.56-28.57 21.97-23.23 22.41-18.04 22.82-12.98 23.23-8.13 23.82-3.42 24.6 1.23 25.66 5.94 26.96 10.73 28.37 15.58 29.84 20.44 31.26 25.29 32.7 30.07 34.17 34.89 35.68 39.57 37.18 44.29 38.75 48.9 40.36 53.48 42.03 58.02 43.74 62.51 45.49 66.94 47.32 71.36 49.17-12.1 17.63-71.53-49.31-67.15-47.46-62.78-45.69-58.33-43.98-53.86-42.31-49.34-40.73-44.8-39.19-40.18-37.77-35.58-36.4-30.92-35.13-26.21-33.9-21.46-32.84-16.64-31.88-11.72-31.03-6.63-30.24-1.4-29.5 4-28.61 9.4-27.58 14.73-26.45 19.99-25.29 25.12-24.23 30.27-23.3 35.4-22.48 40.59-21.8 45.86-21.23 51.19-20.71 56.55-20.3 61.99-19.93 67.46-19.65 72.99-19.45 78.57-19.28 84.17-19.21-.02.07z"></path>
            <path class="fil6"
                  d="M4150.02 3760.49c13.97-52.18 34.62-85.5 61.72-4.21 14.11 42.37 15.24 47.97 20.64 43.81 31.2-24.19 8.13-59.8 56.38-112.77 26.45-28.98 21.52 147.22 37.08 153.81 171.27 72.69 424.46 150.73 486.96-155.86 43.13-211.49-6.94-192.7-100.98-210.19-191.06-35.44-618.84-79.04-912.07 47.32-37.66 16.23 63.6 115.41 228.07 208.15 19.48 11.01 21.26 16.09 46.27-31.64 25.94-49.55 29.63-7.86 28.33 26.93-.24 6.32 20.85 134.4 47.6 34.69l.01-.04z"></path>
            <path class="fil3"
                  d="M4498.59 4016.79c-89.67-155.21-137.55-69.41-27.17-171.03 71.19-65.54-215.43-118.13 12.07-206.06 141.14-54.54 49.69-58.57 23.1-175.64-23.23-102.48 2.16-87.42 75.62-76.96 79.63 11.38 162.83 24.77 53.93-81.7-34.75-33.97-149.27-185.66 90.55-133 178.89 39.29 96.44 16.23 65.71-103.89-27.34-106.93 234.16 37.46 167.75-193 4.04-5.12-110.65-197.42 218.06-93.46 74.56 23.61 551.72-143.42 508.32-12.44-113.22 341.76-813.89 1597.92-1083.28 1831.15-122.31-315.48-47.56-485.11-104.71-584.02l.04.06z"></path>
            <path class="fil6"
                  d="M5435.67 4510.31c325.05 476.09 863.92-106.9 529.99-317.88-284.63-179.85-723.07 35.13-529.99 317.88z"></path>
            <path d="M5880.6 7121.35c-228.85-386.12-532.72-690.12-618.22-1062.71-69.92-304.65-596.38 268.47-725.38 445.99-360.46 472.34 223.39 1080.2 801.45 1341.96 882.96 409.22 890.71-147.66 542.19-725.25l-.04.01z"
                  style="fill: url(&quot;#id1&quot;);"></path>
            <path d="M7541.29 7051.95c71.9-362.06 224.41-680.96 188.81-993.34-31.54-276.84 744.39 1093.6 430.1 1407.55-572.91 558.93-731.23 129.14-618.91-414.21z"
                  style="fill: url(&quot;#id0&quot;);"></path>
            <path class="fil9"
                  d="M5723.14 3827.88c52.63 190.17 202.3 314.69 334.35 278.17 132.05-36.53 196.46-220.28 143.87-410.45s-202.3-314.73-334.35-278.21c-132.05 36.53-196.46 220.31-143.87 410.48v.01z"></path>
            <path class="fil10"
                  d="M5812.7 3627.28c16.98 61.44 64.48 101.97 106.04 90.45 41.59-11.49 61.48-70.67 44.49-132.12-17.02-61.44-64.48-101.97-106.08-90.45-41.55 11.52-61.48 70.64-44.46 132.12h.01zM6017.94 3671.33c8.2 29.67 31.09 49.17 51.16 43.64 20.03-5.53 29.63-34.07 21.42-63.7-8.2-29.63-31.06-49.14-51.12-43.61-20.03 5.57-29.67 34.07-21.46 63.67zM5936.51 3828.84c8.2 29.63 31.09 49.17 51.16 43.61 20.03-5.53 29.63-34.07 21.42-63.7-8.2-29.67-31.09-49.14-51.12-43.61-20.06 5.53-29.67 34.04-21.46 63.7z"></path>
            <path class="fil9"
                  d="m5758.68 3402.12 6.73-.68-6.73.65v.03l6.73-.68-6.73.65c.03.27 2.26 24.67-4.99 53.24-7.31 28.81-23.06 60.73-58.78 81.43-14.97 8.68-33.76 15.51-57.68 19.1a18.02 18.02 0 1 0 5.34 35.64c27.85-4.17 51.19-12.41 70.4-23.54 47.15-27.24 67.76-70.67 76.1-105.53 8.44-35.1 5.57-62.78 5.46-64.04a18.03 18.03 0 0 0-35.85 3.73h.01zM6745.99 3533.99c52.59 190.17 202.3 314.69 334.35 278.17 132.05-36.53 196.46-220.28 143.87-410.45s-202.3-314.69-334.35-278.21c-132.08 36.53-196.46 220.31-143.87 410.48v.01z"></path>
            <path class="fil10"
                  d="M6835.53 3333.4c16.98 61.44 64.48 101.97 106.04 90.49 41.55-11.52 61.48-70.67 44.49-132.12-17.02-61.48-64.48-101.97-106.08-90.49-41.59 11.49-61.48 70.64-44.46 132.12h.01zM7040.81 3377.45c8.2 29.67 31.09 49.17 51.16 43.64 20.03-5.53 29.63-34.07 21.42-63.7-8.2-29.63-31.09-49.14-51.12-43.61-20.06 5.53-29.67 34.07-21.46 63.67zM6959.37 3534.95c8.2 29.63 31.06 49.17 51.16 43.61 20.03-5.53 29.63-34.07 21.42-63.7-8.2-29.63-31.06-49.14-51.12-43.61-20.06 5.57-29.67 34.04-21.46 63.67v.03z"></path>
            <path class="fil9"
                  d="m6910.06 3045.56-5.94 3.25 5.91-3.28.03.03-5.94 3.25 5.91-3.28c.14.27 12.14 21.59 34.28 41.04 22.35 19.58 53.41 36.94 94.59 33.8 17.26-1.33 36.6-6.35 58.33-16.92a17.98 17.98 0 0 1 24.09 8.27 18.06 18.06 0 0 1-8.3 24.12c-25.32 12.38-49.21 18.76-71.36 20.47-54.3 4.28-95.89-19.82-122.51-43.84-26.83-24.12-40.15-48.56-40.77-49.65a18.08 18.08 0 0 1 7.17-24.47 18.03 18.03 0 0 1 24.47 7.21h.03z"></path>
            <path class="fil3"
                  d="M4634.94 8966.62c-948.26 628.75-1889.89 559.28-2458.26 334.11-443.22-175.57-392.34-215.26-101.22-580.39 608.45-763.18 1553.19-1010.7 2319.24-991.49 1354.95 22 1027.17 724.84 240.24 1237.77z"></path>
            <path class="fil4"
                  d="M3081.44 9461.68c-350.68 3.01-661.83-64.72-904.76-160.95-443.25-175.57-392.34-215.26-101.22-580.42 128.8-161.53 272.66-299.9 426.71-417.59-43.02 53.41-48.97 92.71 83.76 76.2 152.92-19.04 43.13 49.27 17.98 207.29-17.46 109.76 239.72-38.28 60.25 154.94-121.73 131.02 187.3 80.14 240.95 104.37-6.49 61-150.12 96.88-140.42 152.14 12.72 72.52 238.87 34.07 249.09 95 11.96 71.39-238.97 195.91-77.47 234.77 130 31.26 233.4-28.13 145.13 134.23v.03z"></path>
            <path class="fil11"
                  d="M3777.92 8054.41c-70.5 11.01-135.05 33.25-197.59 67.49-53.83 29.46 1.06 107.78 54.61 78.46 46.51-25.46 97.36-42.44 149.72-50.61 60.42-9.43 54.1-104.84-6.7-95.34h-.03zM3138.07 8370.13c38-25.46 79.66-42.85 124.93-50.1 60.35-9.71 54.03-105.12-6.7-95.34-62.68 10.05-120.02 31.61-172.88 66.98-51.05 34.21 3.42 112.77 54.61 78.46h.04zM4138.85 8300.35c59.53-15.44 27.41-105.49-31.78-90.14a1284.9 1284.9 0 0 0-166.53 55.64c-56.65 23.34-25.22 113.63 31.78 90.14a1284.54 1284.54 0 0 1 166.53-55.67v.03zM3729.66 8346c-79.11 11.38-154.63 32.74-227.11 66.53-55.26 25.73-24.02 116.11 31.78 90.11 64.62-30.1 131.4-51.12 202.03-61.27 60.62-8.71 54.24-104.13-6.7-95.34v-.04zM3086.98 8681.82c36.29-27.2 74.97-45.08 119.02-55.9 25.12-6.15 37.15-38.35 29.19-60.97-9.3-26.35-35.78-35.34-60.97-29.15-51.46 12.61-99.47 35.78-141.85 67.56-49.04 36.77 5.19 115.51 54.61 78.43l.01.03zM4071.67 8636.68c59.6-15.2 27.44-105.26-31.78-90.14a1233.57 1233.57 0 0 0-166.6 55.47c-56.62 23.44-25.18 113.73 31.78 90.14a1232.64 1232.64 0 0 1 166.6-55.47zM3413.05 8863.24c62.81-39.23 128.9-68.96 199.57-91.03 58.78-18.35 26.9-108.43-31.78-90.11-78.6 24.53-152.55 59.08-222.4 102.72-52.15 32.56 2.46 111.03 54.61 78.46l.01-.03zM4348.56 8714.59c-62.74 8.54-120.05 28.4-174.83 60.01-53.21 30.68 1.57 109.08 54.61 78.46 39.19-22.62 82.11-37.01 126.92-43.13 60.73-8.24 54.3-103.65-6.7-95.34zM3903.02 8886.61c-71.46 7.28-140.11 25.46-205.1 56.11-55.09 25.97-23.88 116.39 31.78 90.11 57.51-27.1 116.7-44.43 180.02-50.85 61.17-6.22 54.54-101.59-6.7-95.38zM3414.35 9024.95l-165.26 58.3c-57.99 20.47-26.31 110.62 31.78 90.11l165.26-58.3c57.99-20.44 26.31-110.62-31.78-90.11z"></path>
            <path class="fil12"
                  d="M4926.5 1725.4c178.11-42.37 334.24-80.93 479.65-64.86 623.55 69.06 955.84 597.24 1076.61 910.67 112.46 291.94-1512.76 901.48-1605.2 630.18-209.21-614.01 144.55-968.18 48.93-1476v.01z"></path>
            <path d="M6349.63 2551.69c7.21 20.82-1.54 42.44-18.45 55.87-22.35 17.74-52.52 14.32-78.22 7.45-34.86-9.3-71.49-26.83-102.76 1.61-28.85 26.25-19.28 69.06-31.98 102.59-16.88 44.56-57.48 54-97.19 33.83-20.13-10.22-38.28-25.49-59.9-32.56-31.88-10.42-87.52 16.03-93.87 51.19-4.68 25.9 3.25 50.13-7.17 75.66-9.06 22.14-25.6 40.87-45.76 53.59-46.24 29.12-91.82 13.9-136.62-9.5-29.56-15.44-60.9-30.75-94.04-16.06-36.05 15.96-43.43 48.83-48.15 84.23-2.94 22-6.59 45.21-22.07 62.3-18.04 19.93-44.67 24.36-70.3 20.85-37.56-5.19-74.15-30.65-112.87-25.39-42.58 5.81-39.4 58.67-64.65 84.71-49.75 51.33-125.27 25.8-168.33-19.41-11.21-11.76 7.41-28.74 18.63-17.02 23.51 24.71 55.83 44.53 91.31 38.95 42.99-6.73 49.69-39.12 65.64-72.25 27-56 88.37-40.7 135.9-24.5 31.13 10.63 76.1 22.76 93.77-15 10.19-21.76 7.89-48.01 13.46-71.12 11.18-46.38 54.58-80.86 102.96-77.71 54.3 3.52 97.29 58.4 153.09 47.29 24.84-4.95 47.46-21.76 59.94-43.74 14.38-25.32 6.76-50.2 10.12-77.37 5.46-44.84 65.44-82.18 108.43-77.88 18.32 1.85 35.2 10.8 50.81 19.96 17.6 10.32 38.61 27.92 60.11 27.07 40.22-1.64 38.24-58.57 43.5-86.6 5.09-27.17 18.45-50.92 42.61-65.3 26.14-15.62 54.34-13.77 82.63-5.84 16.88 4.75 33.39 12 51.02 13.53 22.79 1.98 53.72-9.84 43.81-38.38-5.29-15.24 19.45-20.23 24.67-5.09l-.09.03z"
                  style="fill: rgb(255, 229, 0); fill-rule: nonzero; stroke: rgb(255, 237, 0); stroke-width: 51.02; stroke-miterlimit: 22.9256;"></path>
            <path d="M4452.62 3990.1c96.3 68.82 220.45 241.95 209.11 382.9-1.61 19.96-40.29-57.37-39.19-35.61 1.27 24.88 39.19 35.61 35.71 118.99-2.67 63.91-27.58 128.35-64.99 189.93-25.46 41.86-40.73 71.84-53.52 62.09-43.61-33.15-12.38-66.33-42.07-85.98-17.33-11.49-30.31 64.22-44.49 50.95-186.62-174.56-132.82-525.89-.51-683.28l-.04.01z"
                  style="fill: rgb(255, 229, 0);"></path>
            <path d="M4315.04 2087.66c-414.79 569.05-267.85 1405.29 144.48 1863.17 1094.07-393.84 972.14-1613.03 923.38-2292.38-109.01-11.42-193.62-8.41-269.35-3.49-346.45 22.58-582.48 136.35-798.52 432.69z"
                  style="fill: rgb(106, 207, 48);"></path>
            <path class="fil12"
                  d="M4370.89 4024.54c131.3 137.14 278.14-141.64 157.64-179.95-102.72-32.63-235.58 98.52-157.64 179.95z"></path></g></g></svg>
