<svg xmlns="http://www.w3.org/2000/svg" width="256" height="166" fill="none">
    <path d="M251.14 162.57c-7.24-15.06-8.14-28.07-7.05-39.61a167.76 167.76 0 012.8-17.48c.97-5.07 1.83-9.79 2.04-14.28L79.41 86.26c-.36 38.26 36.35 70.47 82.94 71.83 5.77.17 11.46-1.5 17.57-3.63l3.34-1.19c5.1-1.82 10.53-3.76 16.41-4.94a52.89 52.89 0 0124.22.54c8.13 2.08 17.11 6.3 27.25 13.7z"
          fill="#EA051C" stroke="#EA051C" stroke-width="2"/>
    <path d="M80.48 76.7L250 81.64c.36-38.26-36.35-70.47-82.94-71.83-46.6-1.36-84.94 28.67-86.58 66.9z" fill="#0F8012"
          stroke="#0F8012" stroke-width="2"/>
    <path d="M131.1 53.14c0 28.42-27.81 51.84-62.65 51.84-4.19 0-8.31-1.33-12.82-3.05l-2.45-.94c-3.77-1.47-7.82-3.05-12.22-4.07a40 40 0 00-18.3-.12c-5.71 1.29-12 3.93-19.03 8.53a53.86 53.86 0 005.16-27.74c-.3-4.35-.97-8.43-1.6-12.23l-.15-.9c-.67-4.08-1.24-7.8-1.24-11.32C5.8 24.72 33.6 1.3 68.45 1.3s62.65 23.42 62.65 51.84z"
          fill="#fff" stroke="#0F8012" stroke-width="2.6"/>
    <path d="M29.81 59.83a.33.33 0 01-.25-.1.41.41 0 01-.08-.27v-9.63c0-.11.03-.2.1-.27.06-.07.14-.1.25-.1h1.24c.1 0 .18.03.24.1s.1.16.1.27v6.8l4.56-6.94c.1-.15.23-.23.4-.23h1.15c.1 0 .18.03.24.1s.1.16.1.27v9.65c0 .1-.04.18-.1.25a.28.28 0 01-.24.1h-1.25a.35.35 0 01-.25-.09.38.38 0 01-.1-.26V52.8l-4.54 6.78a.73.73 0 01-.17.18.4.4 0 01-.23.06H29.8zM42.96 59.98c-1.01 0-1.83-.3-2.44-.9-.6-.6-.92-1.44-.95-2.5l-.02-.6.02-.6c.03-1.06.35-1.9.95-2.5.61-.6 1.43-.9 2.44-.9.73 0 1.34.14 1.83.41a2.84 2.84 0 011.53 2.15.3.3 0 01-.1.25.31.31 0 01-.23.1h-1.22a.37.37 0 01-.22-.05.83.83 0 01-.14-.24 1.7 1.7 0 00-.56-.83c-.22-.17-.5-.25-.86-.25-.47 0-.84.16-1.1.49-.27.31-.42.8-.44 1.45l-.01.55.01.49c.04 1.3.55 1.94 1.54 1.94.36 0 .65-.09.88-.25.22-.17.4-.45.54-.83.04-.11.09-.19.14-.23a.32.32 0 01.22-.07h1.22c.09 0 .17.03.23.1.08.07.1.16.1.26-.02.34-.15.71-.39 1.1a3 3 0 01-1.1 1.03c-.5.29-1.13.43-1.87.43zM50.83 51.98c1.03 0 1.84.32 2.44.96.6.63.93 1.53.97 2.68l.01.37-.01.37a3.94 3.94 0 01-.98 2.66c-.6.64-1.41.96-2.43.96-1.1 0-1.94-.36-2.54-1.07a4.3 4.3 0 01-.88-2.84v-.31c0-.1.03-.19.1-.26.06-.07.14-.1.24-.1h4.6v-.12c-.01-.54-.16-1-.43-1.36a1.24 1.24 0 00-1.08-.57c-.54 0-.98.23-1.31.69a.77.77 0 01-.21.2.42.42 0 01-.22.05h-1.2a.36.36 0 01-.22-.08.3.3 0 01-.08-.2c0-.24.13-.52.39-.83.27-.33.64-.61 1.13-.85a3.87 3.87 0 011.7-.35zm-1.54 4.67v.04c0 .58.13 1.05.4 1.4.28.36.66.54 1.14.54.48 0 .85-.18 1.12-.53.27-.36.4-.83.4-1.41v-.04H49.3zM56.1 59.83a.31.31 0 01-.24-.1.36.36 0 01-.1-.25v-7c0-.1.04-.18.1-.25.07-.07.15-.1.24-.1h1.15c.1 0 .18.03.24.1.06.06.1.14.1.25v2.65h3.13v-2.65c0-.1.03-.2.1-.25.06-.07.14-.1.23-.1h1.15c.1 0 .18.03.24.1.06.06.1.14.1.25v7c0 .1-.04.18-.1.25a.28.28 0 01-.24.1h-1.15a.31.31 0 01-.24-.1.36.36 0 01-.1-.25v-2.79h-3.13v2.79c0 .1-.03.18-.1.25a.28.28 0 01-.23.1H56.1zM71.99 52.12c.07 0 .14.03.2.1.06.05.09.12.09.19v7.11c0 .09-.03.16-.08.22a.29.29 0 01-.23.1h-1.19a.29.29 0 01-.22-.1.35.35 0 01-.07-.22v-4.15l-1.48 2.92c-.07.12-.13.2-.2.27-.05.06-.14.09-.25.09h-.45a.35.35 0 01-.25-.1.84.84 0 01-.18-.26l-1.49-2.86v4.09c0 .09-.02.16-.08.22a.27.27 0 01-.2.1h-1.2a.29.29 0 01-.22-.1.31.31 0 01-.09-.22v-7.11c0-.07.03-.14.09-.2a.26.26 0 01.2-.09h1.16c.15 0 .27.09.36.26l2.13 4.15 2.14-4.15c.08-.17.2-.26.36-.26h1.15zM77.26 59.98a3.25 3.25 0 01-2.46-.95 4 4 0 01-.95-2.7l-.02-.37.02-.37c.04-1.12.37-2 .97-2.65a3.2 3.2 0 012.44-.96c1.09 0 1.93.35 2.52 1.06.6.72.9 1.66.9 2.85v.31c0 .1-.03.18-.1.25a.33.33 0 01-.24.1h-4.6v.12c.01.55.15 1 .4 1.38.28.37.64.55 1.1.55.55 0 .99-.23 1.32-.68.08-.1.15-.18.2-.2a.5.5 0 01.23-.05h1.2c.08 0 .15.03.2.09.07.05.1.11.1.19 0 .24-.14.52-.4.84-.26.32-.64.6-1.13.83-.49.24-1.06.36-1.7.36zm1.54-4.67v-.04c0-.59-.14-1.06-.42-1.41a1.33 1.33 0 00-1.12-.53c-.48 0-.86.17-1.13.53-.26.35-.4.82-.4 1.4v.05h3.07zM85.27 59.98c-1.01 0-1.83-.3-2.44-.9-.6-.6-.92-1.44-.95-2.5l-.02-.6.02-.6c.03-1.06.35-1.9.95-2.5.61-.6 1.43-.9 2.44-.9.72 0 1.33.14 1.83.41a2.83 2.83 0 011.53 2.15.3.3 0 01-.1.25.31.31 0 01-.23.1h-1.22a.37.37 0 01-.23-.05.83.83 0 01-.13-.24 1.7 1.7 0 00-.56-.83c-.22-.17-.5-.25-.86-.25-.47 0-.84.16-1.1.49-.28.31-.42.8-.44 1.45l-.01.55.01.49c.04 1.3.55 1.94 1.54 1.94.36 0 .65-.09.87-.25.23-.17.4-.45.55-.83.04-.11.09-.19.13-.23a.32.32 0 01.23-.07h1.22c.09 0 .17.03.23.1.08.07.1.16.1.26-.02.34-.15.71-.39 1.1a3 3 0 01-1.1 1.03c-.5.29-1.13.43-1.87.43zM93.18 59.98a3.25 3.25 0 01-2.45-.95 4 4 0 01-.96-2.7l-.01-.37v-.37c.06-1.12.38-2 .98-2.65a3.2 3.2 0 012.44-.96c1.09 0 1.93.35 2.52 1.06.6.72.9 1.66.9 2.85v.31c0 .1-.03.18-.1.25a.33.33 0 01-.24.1h-4.6v.12c.01.55.15 1 .41 1.38.27.37.63.55 1.1.55.54 0 .98-.23 1.31-.68.09-.1.15-.18.2-.2a.5.5 0 01.23-.05h1.2c.08 0 .15.03.2.09.07.05.1.11.1.19 0 .24-.13.52-.4.84-.26.32-.64.6-1.13.83-.49.24-1.05.36-1.7.36zm1.54-4.67v-.04c0-.59-.14-1.06-.42-1.41a1.33 1.33 0 00-1.12-.53c-.48 0-.86.17-1.12.53-.27.35-.4.82-.4 1.4v.05h3.06zM100.85 59.98a4.1 4.1 0 01-1.8-.34 2.53 2.53 0 01-1-.86c-.2-.34-.32-.67-.34-1v-.04a.2.2 0 01.07-.16.27.27 0 01.18-.08h1.14c.1 0 .16.02.2.06.06.04.11.1.15.2.09.28.26.5.5.62.25.12.57.18.97.18s.73-.09.97-.25c.24-.17.36-.43.36-.78 0-.67-.38-1-1.13-1h-.76a.29.29 0 01-.22-.1.34.34 0 01-.08-.23v-.62c0-.1.03-.16.08-.22.06-.07.13-.1.22-.1h.71c.33 0 .58-.07.75-.2.17-.14.25-.35.25-.64 0-.28-.1-.52-.3-.7-.19-.2-.5-.3-.94-.3-.41 0-.71.06-.9.2-.18.14-.33.37-.43.68a.53.53 0 01-.15.2c-.05.04-.11.06-.2.06h-1.1a.28.28 0 01-.2-.08.25.25 0 01-.07-.2c.02-.4.14-.77.35-1.12.22-.34.56-.63 1.01-.84a3.79 3.79 0 011.7-.34c1.02 0 1.77.2 2.25.63.5.43.74.94.74 1.55 0 .38-.07.7-.2.96a1.5 1.5 0 01-.67.64c.73.3 1.1.95 1.1 1.94 0 .7-.3 1.27-.88 1.67a4 4 0 01-2.33.61zM105.87 56.96a.31.31 0 01-.24-.1.36.36 0 01-.1-.26v-6.79c0-.1.04-.18.1-.25.07-.07.15-.1.24-.1h1.12c.1 0 .18.03.24.1.06.06.1.14.1.25v6.8c0 .09-.04.17-.1.24a.29.29 0 01-.24.1h-1.12zm-.08 2.87a.31.31 0 01-.24-.1.35.35 0 01-.1-.25V58.1c0-.11.03-.2.1-.27.06-.07.14-.1.24-.1h1.28c.1 0 .19.03.26.1.06.07.1.16.1.27v1.38c0 .1-.04.18-.1.25a.33.33 0 01-.25.1h-1.3z"
          fill="#0F8012"/>
</svg>
